PathFileType  4	(X/Y/Z) C:\Users\antoi\Documents\MyRepositories\mobilecap\ResultsAnalysis
DataRate	CameraRate	NumFrames	NumMarkers	Units	OrigDataRate	OrigDataStartFrame	OrigNumFrames
100.0	100.0	4	51	mm	100.0	107	142
Frame#	Time	r_knee			r_shank_antsup			r_ankle			r_calc			r_5meta			r_toe			L_knee			L_shank_antsup			L_ankle			L_calc			L_5meta			L_toe			r_sh2			r_sh3			r_sh4			L_sh2			L_sh3			r_thigh1			r_thigh2			r_thigh3			r_thigh4			r_thigh5			L_thigh1			L_thigh2			L_thigh3			L_thigh4			r.ASIS			r.PSIS			L.ASIS			L.PSIS			C7			R_Shoulder			L_Shoulder			R_Sternum			L_Sternum			R_humerus			R_elbow_med			R_elbow_lat			R_forearm			R_wrist_radius			R_wrist_ulna			L_humerus			L_elbow_med			L_elbow_lat			L_forearm			L_wrist_radius			L_wrist_ulna			R_HJC			L_HJC			R_HJC_reg			L_HJC_reg			
		X1	Y1	Z1	X2	Y2	Z2	X3	Y3	Z3	X4	Y4	Z4	X5	Y5	Z5	X6	Y6	Z6	X7	Y7	Z7	X8	Y8	Z8	X9	Y9	Z9	X10	Y10	Z10	X11	Y11	Z11	X12	Y12	Z12	X13	Y13	Z13	X14	Y14	Z14	X15	Y15	Z15	X16	Y16	Z16	X17	Y17	Z17	X18	Y18	Z18	X19	Y19	Z19	X20	Y20	Z20	X21	Y21	Z21	X22	Y22	Z22	X23	Y23	Z23	X24	Y24	Z24	X25	Y25	Z25	X26	Y26	Z26	X27	Y27	Z27	X28	Y28	Z28	X29	Y29	Z29	X30	Y30	Z30	X31	Y31	Z31	X32	Y32	Z32	X33	Y33	Z33	X34	Y34	Z34	X35	Y35	Z35	X36	Y36	Z36	X37	Y37	Z37	X38	Y38	Z38	X39	Y39	Z39	X40	Y40	Z40	X41	Y41	Z41	X42	Y42	Z42	X43	Y43	Z43	X44	Y44	Z44	X45	Y45	Z45	X46	Y46	Z46	X47	Y47	Z47	X48	Y48	Z48	X49	Y49	Z49	X50	Y50	Z50	X51	Y51	Z51	

107	1.06000000	1244.44099	511.91596	-80.45331	1298.86083	459.98844	-95.07432	1324.73753	115.03676	-92.34785	1267.39486	66.20290	-128.34680	1441.57151	80.51277	-64.52106	1479.72888	124.68534	-117.38113	991.17175	495.80201	-380.05251	1002.36969	394.83895	-387.48184	872.50660	104.72446	-369.62018	799.47543	67.82109	-326.91927	973.57106	40.56990	-406.45180	1014.13267	61.50369	-348.10099	1304.84258	345.91089	-69.48288	1219.43178	452.15704	-69.06935	1229.32446	339.73574	-66.17005	917.97457	425.98671	-390.70723	887.49085	307.66979	-397.55172	1182.79392	826.86905	-56.97783	1222.48683	719.70349	-61.54573	1177.49756	680.41603	-31.38831	1078.83616	787.14203	-36.14506	1120.57315	677.99903	-44.13984	1065.34102	755.47517	-425.48756	1051.65960	619.41870	-402.33503	960.68555	769.39218	-374.39495	950.23447	629.45260	-365.58828	1160.11962	973.94602	-113.18620	968.39388	1004.86314	-179.15128	1155.18073	940.97481	-362.08615	956.85206	1007.34560	-279.12082	1008.84607	1416.08760	-348.31839	1104.04849	1409.37757	-162.64215	1093.89609	1325.48744	-504.92275	1137.18098	1362.18730	-312.71649	1144.41684	1350.79177	-351.62642	1100.26923	1300.31304	-60.20760	1020.26975	1093.82444	-27.55859	1043.17364	1130.19089	32.61079	1140.61661	1026.64934	59.70551	1204.67389	908.38935	82.79811	1182.71098	902.27243	109.04088	1141.78571	1209.21808	-532.81081	1153.97475	984.10475	-437.39237	1190.32950	1001.19290	-506.60303	1289.19170	955.99203	-468.36887	1399.21992	849.76303	-425.23716	1380.32528	827.06422	-447.96154	1083.28754	892.33767	-123.34204	1071.42619	874.26837	-328.68067	1097.37186	879.10456	-141.82867	1078.36830	883.19223	-306.42573	
108	1.07000000	1254.43937	509.60193	-80.03169	1311.36270	460.58986	-94.95523	1353.32988	116.92359	-87.99327	1297.38896	65.51679	-122.19843	1471.85707	86.87244	-61.60789	1507.55607	131.53907	-115.69362	995.80169	495.30186	-380.48834	1005.73445	394.17123	-387.91638	873.04166	105.23549	-369.59487	799.82575	68.39479	-326.83179	973.64480	40.47552	-406.59292	1014.35729	61.29483	-348.25069	1322.61956	347.25078	-67.96604	1232.52251	449.62900	-68.02037	1247.57506	337.74654	-63.83787	921.60791	426.14861	-390.96022	889.98230	308.09816	-397.64804	1193.21748	823.80384	-57.38068	1232.00923	716.27670	-62.13118	1186.70677	677.33495	-31.95652	1088.97924	784.90305	-36.64417	1129.74382	675.40900	-44.74800	1073.97463	754.01028	-425.95065	1058.15363	618.06733	-402.68343	969.70557	769.41775	-374.29823	956.98734	629.55148	-365.73864	1171.89673	971.36359	-113.14834	979.76160	1002.45670	-178.66686	1165.99534	938.98205	-362.26739	968.06184	1005.33725	-278.64556	1020.25992	1414.79129	-345.17763	1115.04505	1406.38985	-159.17567	1106.29538	1325.69764	-502.22881	1148.52368	1360.44048	-309.54903	1155.85754	1349.49746	-348.55264	1110.14459	1296.94903	-57.12871	1028.99488	1090.68295	-25.87497	1051.23701	1126.85840	34.62113	1147.85991	1022.86228	62.85790	1211.15797	904.32982	86.38233	1188.78763	898.08659	112.22077	1155.64628	1210.21213	-530.35501	1168.47887	984.19140	-437.20289	1205.95039	1002.37218	-505.48221	1304.64664	958.12453	-465.82000	1415.36225	853.15108	-421.45631	1397.42992	830.53963	-444.65922	1094.84104	889.80706	-123.42417	1082.39220	872.25071	-328.77105	1108.85534	876.33973	-142.07391	1089.58691	881.08346	-306.72828	
109	1.08000000	1264.84416	507.43893	-79.42046	1323.87482	460.96071	-94.72422	1379.71853	119.00843	-84.01827	1325.20740	65.04382	-116.54653	1499.70752	93.25313	-58.99354	1533.00095	138.27432	-114.24309	1000.98522	494.67805	-380.88916	1009.59566	393.40468	-388.30277	873.69999	105.86168	-369.61541	800.23471	69.16420	-326.77687	973.77095	40.35865	-406.71185	1014.58673	61.02412	-348.42400	1339.73936	348.47271	-66.45764	1245.74845	447.38303	-66.69101	1265.30240	336.15654	-61.36432	925.76833	426.31501	-391.23315	892.87720	308.57650	-397.78889	1203.63373	820.78771	-57.63489	1241.61895	712.93316	-62.48295	1196.00761	674.30726	-32.32016	1099.02650	782.57042	-37.13965	1139.05944	672.78107	-45.23445	1082.93692	752.38837	-426.35483	1065.12831	616.63130	-402.96446	979.08862	769.29369	-374.27604	964.17187	629.51001	-365.94533	1183.70947	968.63248	-112.96807	991.21745	999.95316	-178.11563	1176.97269	936.87583	-362.32793	979.39281	1003.26899	-278.12972	1031.76134	1413.40622	-341.83804	1126.13249	1403.34296	-155.53633	1118.66832	1325.81427	-499.36681	1159.98360	1358.65809	-306.22350	1167.39980	1348.13661	-345.33552	1120.17129	1293.49855	-53.93897	1038.02117	1087.41852	-24.14811	1059.64198	1123.37597	36.65287	1155.43197	1018.89940	65.88589	1217.96626	900.11477	89.79401	1195.20058	893.80293	115.28453	1169.26490	1211.02547	-527.83738	1182.93706	984.17582	-436.85756	1221.42683	1003.51651	-504.18794	1319.93168	960.07521	-463.24030	1431.21242	856.12394	-417.83997	1414.27551	833.78170	-441.39865	1106.41746	887.14671	-123.41943	1093.47648	870.14279	-328.78107	1120.38807	873.41730	-142.23161	1100.91234	878.87779	-306.95770	
110	1.09000000	1275.80385	505.47424	-78.62099	1336.44210	461.01095	-94.30806	1403.52702	120.86393	-80.54401	1350.43196	64.44191	-111.63971	1524.74427	99.09022	-56.68582	1555.77551	144.36929	-112.98371	1006.74682	493.90031	-381.21930	1013.99284	392.52898	-388.60273	874.49678	106.62011	-369.67270	800.69142	70.17612	-326.75032	973.95191	40.23066	-406.80185	1014.84225	60.70260	-348.62155	1356.08994	349.36974	-64.95386	1259.07831	445.40209	-65.11721	1282.27791	334.83498	-58.85219	930.51631	426.48412	-391.49089	896.21270	309.11093	-397.94911	1214.15564	817.98834	-57.74875	1251.54276	709.88412	-62.56832	1205.68798	671.51514	-32.40728	1109.13935	780.21495	-37.54338	1148.80084	670.25089	-45.50049	1092.21561	750.61481	-426.66212	1072.60132	615.11557	-403.14506	988.81568	768.99427	-374.27306	971.80985	629.32106	-366.16103	1195.54375	965.80256	-112.66036	1002.75955	997.42794	-177.48685	1188.11235	934.67842	-362.27454	990.84903	1001.18626	-277.55542	1043.37542	1411.96659	-338.32579	1137.32984	1400.26990	-151.74110	1131.04870	1325.87176	-496.35318	1171.58082	1356.87249	-302.74801	1179.06138	1346.74356	-341.98218	1130.36759	1289.99044	-50.65393	1047.36572	1084.05338	-22.38360	1068.40984	1119.76929	38.69550	1163.38010	1014.79905	68.78931	1225.12424	895.76875	93.01696	1201.97896	889.43605	118.21951	1182.66320	1211.68204	-525.28812	1197.31016	984.08731	-436.35217	1236.72908	1004.64268	-502.73099	1335.00347	961.84676	-460.64326	1446.70526	858.70697	-414.37140	1430.78271	836.75159	-438.24843	1118.00988	884.41495	-123.31655	1104.65971	867.98076	-328.69770	1131.93988	870.42110	-142.29116	1112.32319	876.61011	-307.10236	
